<svg xmlns="http://www.w3.org/2000/svg" viewBox="0 0 387.75 499.22"><defs><style>.cls-1{fill:none;stroke:#fff;stroke-width:20px;}.cls-1,.cls-2,.cls-3,.cls-4{stroke-miterlimit:10;}.cls-2,.cls-3,.cls-4{stroke:#000;}.cls-3{fill:#999;}.cls-4{fill:#fff;}</style></defs><g id="Capa_2" data-name="Capa 2"><g id="Capa_1-2" data-name="Capa 1"><path class="cls-1" d="M267.45,160.2c-.6,3.35-.7,5.07-1.84,7.84a15.79,15.79,0,0,0,5-3.78Zm0,0c-.6,3.35-.7,5.07-1.84,7.84a15.79,15.79,0,0,0,5-3.78Zm106.13,120s-66.32-48-60.21-73.85c5.26-22.23-9.27-52.41-13.48-60.51a2.77,2.77,0,0,1,.76-3.45c23-17.67,55.51-61.66,59.17-66.65a.25.25,0,0,0-.23-.4c-29.89,3.9-72.48.81-79.53.26-.53,0-.67-.39-.32-.76,10.55-10.84,26.09-58.47,28-64.39.1-.35-.1-.51-.41-.37C249.89,33.8,223.92,33.71,200,39.8S135.1,81.19,135.1,81.19C67.05,94.11,33.69,124,28.56,128.94c-.41.39-.27.63.29.55,83.16-11.8,63.92-3.61,63.92-3.61-55,19-91.61,90-80.91,82.79,12.58-8.53,38.43-17.84,45.29-20.23,1-.31,1.24.08.69.92C27.36,236.16,50,337.77,50.43,314.5a55.94,55.94,0,0,1,13.35-35.69,1,1,0,0,1,1.68.26c24.66,48.82,72,65.54,72,65.54C240.31,375.12,260.65,451,263.91,467.47a.33.33,0,0,0,.66-.07c.06-8.45-.41-29.58-.55-35.58a.91.91,0,0,1,1.4-.78c13.28,8.58,35.25,47.12,40.94,57.35a1.61,1.61,0,0,0,2.8,0c31.69-57.27-25.77-122.24-39.06-135.34-12.41-12.23-50.8-44.68-50.8-44.68-24.79-21.7-11.62-40.22-4.1-43.47a6.12,6.12,0,0,1,6.22.88c11.5,9.37,58.15,47.23,71.73,56.7,15.52,10.82,21.64-4.7,21.64-4.7,44.21,7.52,54.56-21.17,54.56-21.17C385.34,287.69,373.58,280.17,373.58,280.17ZM204.5,244c-4,3.9-16.05,15.34-15.87,39.16s20.1,39.51,34.75,49.21,80.25,61.17,78.18,121.42c0,.47-.12.51-.24,0C300.09,449,292.56,426,253.56,388c-.37-.35-.51-.28-.32.2,1.34,3.17,5.45,14.5,2,26.81-.13.47-.43.51-.66.06-3.51-7.24-30.56-60.31-72.28-75.74-44.36-16.42-62.88-75.53-63.13-106a.91.91,0,0,0-.94-.9c-5.06.08-30.27,1.74-55.92,25.13a.38.38,0,0,1-.65-.28c.16-6.45,3-46.59,46.94-93,.18-.17.14-.33-.11-.29-3.73.31-29.68,2.78-42,8.17a.17.17,0,0,1-.19-.27c3-4.26,24.73-33.61,62.11-48a.12.12,0,0,0,0-.23c-2.29-.85-16.76-6.28-23.07-12.33a.3.3,0,0,1,0-.47c2.82-1.92,25.69-16.6,69.48-14.37,1,.06,1,.29.08.55-8,1.92-40.22,10-45.75,15.07-.08.08,0,.2.1.22,2.72.19,24.05,1.72,29.67,3.11a0,0,0,0,1,0,.08c-2.33,1.28-46.54,25.5-51,34.12,0,.08,0,.14.07.12,2.26-.49,29.74-6.35,36.4-6.33.1,0,.12.1.06.16-2.55,2.31-32.18,29.81-40.92,70.57,0,.14.11.24.21.14a137.31,137.31,0,0,1,38.42-24.48,1.79,1.79,0,0,1,1.25-.06c6.72,2.1,64.8,20.93,64.8,43.2C208.21,233,208.44,240.08,204.5,244ZM194,81.76c-.1,0-.16-.13-.06-.15C199.07,79.8,237.39,66.2,252,55.07c.24-.18.18-.31-.12-.3-2.82.14-16.13.81-23.95,2a.15.15,0,0,1-.15-.25c2.37-2.71,19.67-20.76,61.95-25.46.43,0,.59.2.33.55-3.94,5.56-32.79,46.08-39.94,52.19a1.62,1.62,0,0,1-1.55.29C245.33,83.13,231.41,79.82,194,81.76Zm86.7,111.66c-2.94-2.14-10-11.78-12.13-14.72a2.14,2.14,0,0,0-1.66-.9c-19.94-.94-19.39-18.29-19.11-21.54a1.79,1.79,0,0,0-.18-1,45.94,45.94,0,0,1-3-8.55.48.48,0,0,1,.63-.56c33.4,11.32,36.1,41.37,36.32,46.84A.52.52,0,0,1,280.68,193.42Zm-10.05-29.16-3.18-4.06c-.6,3.35-.7,5.07-1.84,7.84A15.79,15.79,0,0,0,270.63,164.26Zm-3.18-4.06c-.6,3.35-.7,5.07-1.84,7.84a15.79,15.79,0,0,0,5-3.78Zm0,0c-.6,3.35-.7,5.07-1.84,7.84a15.79,15.79,0,0,0,5-3.78Z"/><path d="M267.45,160.2c-.6,3.35-.7,5.07-1.84,7.84a15.79,15.79,0,0,0,5-3.78Zm0,0c-.6,3.35-.7,5.07-1.84,7.84a15.79,15.79,0,0,0,5-3.78Zm106.13,120s-66.32-48-60.21-73.85c5.26-22.23-9.27-52.41-13.48-60.51a2.77,2.77,0,0,1,.76-3.45c23-17.67,55.51-61.66,59.17-66.65a.25.25,0,0,0-.23-.4c-29.89,3.9-72.48.81-79.53.26-.53,0-.67-.39-.32-.76,10.55-10.84,26.09-58.47,28-64.39.1-.35-.1-.51-.41-.37C249.89,33.8,223.92,33.71,200,39.8S135.1,81.19,135.1,81.19C67.05,94.11,33.69,124,28.56,128.94c-.41.39-.27.63.29.55,83.16-11.8,63.92-3.61,63.92-3.61-55,19-91.61,90-80.91,82.79,12.58-8.53,38.43-17.84,45.29-20.23,1-.31,1.24.08.69.92C27.36,236.16,50,337.77,50.43,314.5a55.94,55.94,0,0,1,13.35-35.69,1,1,0,0,1,1.68.26c24.66,48.82,72,65.54,72,65.54C240.31,375.12,260.65,451,263.91,467.47a.33.33,0,0,0,.66-.07c.06-8.45-.41-29.58-.55-35.58a.91.91,0,0,1,1.4-.78c13.28,8.58,35.25,47.12,40.94,57.35a1.61,1.61,0,0,0,2.8,0c31.69-57.27-25.77-122.24-39.06-135.34-12.41-12.23-50.8-44.68-50.8-44.68-24.79-21.7-11.62-40.22-4.1-43.47a6.12,6.12,0,0,1,6.22.88c11.5,9.37,58.15,47.23,71.73,56.7,15.52,10.82,21.64-4.7,21.64-4.7,44.21,7.52,54.56-21.17,54.56-21.17C385.34,287.69,373.58,280.17,373.58,280.17ZM204.5,244c-4,3.9-16.05,15.34-15.87,39.16s20.1,39.51,34.75,49.21,80.25,61.17,78.18,121.42c0,.47-.12.51-.24,0C300.09,449,292.56,426,253.56,388c-.37-.35-.51-.28-.32.2,1.34,3.17,5.45,14.5,2,26.81-.13.47-.43.51-.66.06-3.51-7.24-30.56-60.31-72.28-75.74-44.36-16.42-62.88-75.53-63.13-106a.91.91,0,0,0-.94-.9c-5.06.08-30.27,1.74-55.92,25.13a.38.38,0,0,1-.65-.28c.16-6.45,3-46.59,46.94-93,.18-.17.14-.33-.11-.29-3.73.31-29.68,2.78-42,8.17a.17.17,0,0,1-.19-.27c3-4.26,24.73-33.61,62.11-48a.12.12,0,0,0,0-.23c-2.29-.85-16.76-6.28-23.07-12.33a.3.3,0,0,1,0-.47c2.82-1.92,25.69-16.6,69.48-14.37,1,.06,1,.29.08.55-8,1.92-40.22,10-45.75,15.07-.08.08,0,.2.1.22,2.72.19,24.05,1.72,29.67,3.11a0,0,0,0,1,0,.08c-2.33,1.28-46.54,25.5-51,34.12,0,.08,0,.14.07.12,2.26-.49,29.74-6.35,36.4-6.33.1,0,.12.1.06.16-2.55,2.31-32.18,29.81-40.92,70.57,0,.14.11.24.21.14a137.31,137.31,0,0,1,38.42-24.48,1.79,1.79,0,0,1,1.25-.06c6.72,2.1,64.8,20.93,64.8,43.2C208.21,233,208.44,240.08,204.5,244ZM194,81.76c-.1,0-.16-.13-.06-.15C199.07,79.8,237.39,66.2,252,55.07c.24-.18.18-.31-.12-.3-2.82.14-16.13.81-23.95,2a.15.15,0,0,1-.15-.25c2.37-2.71,19.67-20.76,61.95-25.46.43,0,.59.2.33.55-3.94,5.56-32.79,46.08-39.94,52.19a1.62,1.62,0,0,1-1.55.29C245.33,83.13,231.41,79.82,194,81.76Zm86.7,111.66c-2.94-2.14-10-11.78-12.13-14.72a2.14,2.14,0,0,0-1.66-.9c-19.94-.94-19.39-18.29-19.11-21.54a1.79,1.79,0,0,0-.18-1,45.94,45.94,0,0,1-3-8.55.48.48,0,0,1,.63-.56c33.4,11.32,36.1,41.37,36.32,46.84A.52.52,0,0,1,280.68,193.42Zm-10.05-29.16-3.18-4.06c-.6,3.35-.7,5.07-1.84,7.84A15.79,15.79,0,0,0,270.63,164.26Zm-3.18-4.06c-.6,3.35-.7,5.07-1.84,7.84a15.79,15.79,0,0,0,5-3.78Zm0,0c-.6,3.35-.7,5.07-1.84,7.84a15.79,15.79,0,0,0,5-3.78Z"/><path class="cls-2" d="M245.19,146.13a.48.48,0,0,0-.63.56,45.94,45.94,0,0,0,3,8.55,1.79,1.79,0,0,1,.18,1c-.28,3.25-.83,20.6,19.11,21.54a2.14,2.14,0,0,1,1.66.9c2.14,2.94,9.19,12.58,12.13,14.72a.52.52,0,0,0,.83-.45C281.29,187.5,278.59,157.45,245.19,146.13ZM265.61,168c1.14-2.77,1.24-4.49,1.84-7.84l3.18,4.06A15.79,15.79,0,0,1,265.61,168Z"/><path class="cls-3" d="M194,81.76c37.44-1.94,51.35,1.37,54.57,2.35a1.62,1.62,0,0,0,1.55-.29c7.15-6.12,36-46.63,39.94-52.2.26-.35.1-.58-.33-.54-42.28,4.7-59.58,22.75-62,25.45a.16.16,0,0,0,.16.26c7.82-1.22,21.13-1.88,23.95-2,.29,0,.35.12.12.29C237.39,66.2,199.07,79.8,193.92,81.6,193.82,81.62,193.88,81.78,194,81.76Z"/><path class="cls-3" d="M61.64,257.33a.38.38,0,0,0,.65.27c25.65-23.38,50.86-25.05,55.91-25.12a.91.91,0,0,1,1,.9c.25,30.45,18.77,89.57,63.12,106,41.73,15.42,68.78,68.5,72.29,75.73.23.45.52.41.66-.06,3.47-12.31-.64-23.63-2-26.81-.19-.47-.06-.55.32-.2,39,38,46.52,60.92,47.76,65.74.12.47.23.43.23,0,2.08-60.25-63.61-111.77-78.18-121.42s-34.57-25.4-34.75-49.21,11.9-35.26,15.88-39.16S208.2,233,208.2,233c0-22.27-58.07-41.1-64.79-43.2a1.72,1.72,0,0,0-1.26.06,137,137,0,0,0-38.41,24.48c-.1.1-.24,0-.22-.14,8.75-40.77,38.38-68.26,40.93-70.58.06-.06,0-.15-.06-.15-6.67,0-34.14,5.84-36.4,6.33-.09,0-.11,0-.08-.12,4.45-8.62,48.67-32.85,51-34.12a0,0,0,0,0,0-.08c-5.62-1.39-26.95-2.92-29.67-3.12-.12,0-.18-.13-.1-.21,5.53-5.06,37.79-13.15,45.75-15.07,1-.26.92-.49-.08-.55C131,94.3,108.13,109,105.31,110.9a.3.3,0,0,0,0,.47c6.31,6.06,20.77,11.49,23.07,12.33a.13.13,0,0,1,0,.24C91,138.36,69.23,167.72,66.23,172a.17.17,0,0,0,.19.28c12.37-5.39,38.32-7.86,42-8.17.26,0,.3.11.12.29C64.64,210.74,61.8,250.88,61.64,257.33Z"/><path class="cls-4" d="M244.61,146.22c.28.94,1.07,3.51,2.5,7.52a6,6,0,0,1,.35,2.31c-.2,4.2.44,19.24,19.54,22.17a3.66,3.66,0,0,1,2.38,1.39c2.46,3.29,9.36,12.36,11.8,14.09a.17.17,0,0,0,.27-.16c0-2.43-1.16-17.93-10.87-29.56a14.62,14.62,0,0,1-5,3.78s1.39-6,1.84-7.84c0,0-11.37-12-22.49-14A.25.25,0,0,0,244.61,146.22Z"/></g></g></svg>